<svg xmlns="http://www.w3.org/2000/svg" viewBox="0 0 310 310"><title>aluraIcon</title><circle cx="155" cy="155" r="150" fill="none" stroke="#fff" stroke-miterlimit="10" stroke-width="10"/><path d="M107.6,210a1,1,0,0,1-1,1H95.37a1,1,0,0,1-1-1V98a1,1,0,0,1,1-1h11.2a1,1,0,0,1,1,1m64.71,91.15v2.82a25,25,0,0,1-.66,5.08,13.55,13.55,0,0,1-3.29,6.3,21.31,21.31,0,0,1-8,5.46c-3.58,1.5-8.47,2.25-14.77,2.25s-11.2-.75-14.77-2.25a20.33,20.33,0,0,1-8-5.46,13.52,13.52,0,0,1-3.3-6.39,33.86,33.86,0,0,1-.65-5V128.16a1,1,0,0,1,1-1h11.19a1,1,0,0,1,1,1v59.73a17.81,17.81,0,0,0,.56,4.51,7.7,7.7,0,0,0,1.69,3.2,9.08,9.08,0,0,0,4,2.54,19.69,19.69,0,0,0,7,1,21.73,21.73,0,0,0,7.24-1,11.06,11.06,0,0,0,4-2.45,6.83,6.83,0,0,0,1.89-3.1,15.08,15.08,0,0,0,.65-4.8V128.16a1,1,0,0,1,1-1h11.19a1,1,0,0,1,1,1v61Zm38.09-62h7.53a1,1,0,0,1,.94,1.32l-2.54,9.78a1,1,0,0,1-.94.75h-5.27a17.73,17.73,0,0,0-6.86,1.13,12,12,0,0,0-4,2.64,7.59,7.59,0,0,0-1.78,3.1,12.35,12.35,0,0,0-.38,3.1v61.14a1.06,1.06,0,0,1-1,1H184.73a1.06,1.06,0,0,1-1-1V146.31a24.84,24.84,0,0,1,.66-5,14,14,0,0,1,3.29-6.4,21.44,21.44,0,0,1,8-5.46C199.12,127.88,204.1,127.12,210.4,127.12Zm-153.78,0c9.12,0,15.8,1.79,20.13,5.36a17,17,0,0,1,6.39,13.45V192a21.25,21.25,0,0,1-1,6.12,13.26,13.26,0,0,1-4,6.11,24.38,24.38,0,0,1-8.09,4.7,40.13,40.13,0,0,1-13.36,1.88A39.69,39.69,0,0,1,43.36,209a22.85,22.85,0,0,1-8.09-4.7,14.32,14.32,0,0,1-4-6.11,22.8,22.8,0,0,1-1-6.12v-7.33a20.11,20.11,0,0,1,3-10.73A16.61,16.61,0,0,1,42,167.1c1.88-.66,3.95-1.32,6.39-2.17s4.7-1.59,7-2.44,4.14-1.51,5.83-2.07,2.73-.94,3.11-1.13.94-.47,1.59-.85a9.27,9.27,0,0,0,2-1.59,13.74,13.74,0,0,0,1.6-2.45,7.36,7.36,0,0,0,.66-3.29v-2.92a8.07,8.07,0,0,0-.66-3.19,7.29,7.29,0,0,0-2.16-3,11.56,11.56,0,0,0-4.14-2.25,20.75,20.75,0,0,0-6.49-.85c-5.17,0-8.65,1-10.53,3.2a11.38,11.38,0,0,0-2.73,6.77,1,1,0,0,1-1,.94H31a1,1,0,0,1-1-1V146a17.39,17.39,0,0,1,1.5-7.33,14.53,14.53,0,0,1,4.8-6,23.54,23.54,0,0,1,8.28-4A44.17,44.17,0,0,1,56.62,127.12ZM70,168.42a3.52,3.52,0,0,1-1.6,2.35A11.15,11.15,0,0,1,66,171.9c-1.59.56-3.29,1.13-5.07,1.78s-3.48,1.32-5.08,1.79c-1.88.66-3.67,1.22-5.27,1.88A15.7,15.7,0,0,0,47,179.52a12.86,12.86,0,0,0-2.55,3.19,9.69,9.69,0,0,0-1.12,4.89c0,4,.94,6.87,2.82,8.84s5.36,2.92,10.44,2.92,8.75-1,10.63-3,2.82-4.89,2.82-8.65V168.42Zm180.5-41.3c9.12,0,15.8,1.79,20.12,5.36a17,17,0,0,1,6.4,13.45V192a21.6,21.6,0,0,1-1,6.12,13.2,13.2,0,0,1-4,6.11,24.28,24.28,0,0,1-8.09,4.7,48.38,48.38,0,0,1-26.71,0,23,23,0,0,1-8.09-4.7,14.29,14.29,0,0,1-4-6.11,22.41,22.41,0,0,1-1-6.12v-7.33a20,20,0,0,1,3-10.73,16.62,16.62,0,0,1,8.65-6.86c1.88-.66,3.95-1.32,6.4-2.17s4.7-1.59,7-2.44,4.14-1.51,5.83-2.07,2.73-.94,3.1-1.13.94-.47,1.6-.85a9.52,9.52,0,0,0,2-1.59,13.74,13.74,0,0,0,1.6-2.45,7.36,7.36,0,0,0,.65-3.29v-2.92a8.23,8.23,0,0,0-.65-3.19,7.23,7.23,0,0,0-2.17-3,11.43,11.43,0,0,0-4.13-2.25,20.75,20.75,0,0,0-6.49-.85c-5.18,0-8.66,1-10.54,3.2a11.51,11.51,0,0,0-2.73,6.77,1,1,0,0,1-1,.94H224.89a1,1,0,0,1-1-1V146a17.39,17.39,0,0,1,1.5-7.33,14.45,14.45,0,0,1,4.8-6,23.49,23.49,0,0,1,8.27-4A44.79,44.79,0,0,1,250.48,127.12Zm13.35,41.3a3.46,3.46,0,0,1-1.6,2.35,10.87,10.87,0,0,1-2.35,1.13c-1.6.56-3.29,1.13-5.08,1.78s-3.48,1.32-5.08,1.79c-1.88.66-3.67,1.22-5.26,1.88a15.55,15.55,0,0,0-3.58,2.17,12.61,12.61,0,0,0-2.54,3.19,9.69,9.69,0,0,0-1.13,4.89c0,4,.94,6.87,2.82,8.84s5.37,2.92,10.45,2.92,8.74-1,10.62-3,2.82-4.89,2.82-8.65V168.42Z" fill="#fff" fill-rule="evenodd"/></svg>