<svg xmlns="http://www.w3.org/2000/svg" viewBox="0 0 310 310"><title>gitIcon3</title><path d="M120.1,302.63c0-2.53-.1-6.33-.1-11,0-4,0-6.71.06-8.56.1-8.27.12-14.65-.11-19-30.38,4-42.23-2.14-47.34-8.78-1.57-2-2.74-1.45-6.21-10.54-1.8-4.72-9.6-19.28-16.4-23.17-5.6-3.08-13.6-10.67-.2-10.87,12.6-.21,21.6,11.89,24.6,16.81,14.4,24.82,37.4,17.84,46.6,13.54,1.4-10.67,5.6-17.84,10.2-21.94-35.6-4.1-72.8-18.25-72.8-81,0-17.84,6.2-32.61,16.4-44.09-1.6-4.1-7.2-20.92,1.6-43.47,0,0,13.4-4.31,44,16.81a147.43,147.43,0,0,1,80,0c30.6-21.32,44-16.81,44-16.81,8.8,22.55,3.2,39.37,1.6,43.47,10.2,11.48,16.4,26,16.4,44.09,0,63-37.4,76.9-73,81,7.66,12.65,10,23.26,10.8,30.35.58,12.48,0,15.2.17,33.51,0,2.32,0,2.3,0,4.2,0,6.49-.11,11.77-.24,15.36-3,.83-7.18,1.89-12.24,2.84a151,151,0,0,1-27.26,2.6,154.16,154.16,0,0,1-17.14-.89c-5-.55-9.12-1.26-11.86-1.78C127.43,304.52,123.56,303.59,120.1,302.63Z" transform="translate(-5 -5)" fill="#fff" fill-rule="evenodd"/><circle cx="155" cy="155" r="150" fill="none" stroke="#fff" stroke-miterlimit="10" stroke-width="10"/></svg>