<svg xmlns="http://www.w3.org/2000/svg" viewBox="0 0 310 310"><title>inIcon</title><circle cx="155" cy="155" r="150" fill="none" stroke="#fff" stroke-miterlimit="10" stroke-width="10"/><path d="M255.49,181.58v73.83H214.56V186.53c0-17.31-5.92-29.12-20.74-29.12-11.31,0-18,8-21,15.66-1.08,2.75-1.36,6.58-1.36,10.43v71.91h-41s.55-116.67,0-128.75h41v18.25a4.81,4.81,0,0,0-.27.41h.27v-.41c5.43-8.76,15.15-21.28,36.89-21.28C235.29,123.63,255.49,142,255.49,181.58ZM87.68,64.59c-14,0-23.17,9.61-23.17,22.24,0,12.36,8.9,22.26,22.63,22.26h.27c14.28,0,23.16-9.9,23.16-22.26C110.3,74.2,101.69,64.59,87.68,64.59ZM66.94,255.41h40.93V126.66H66.94Z" transform="translate(-5 -5)" fill="#fff"/></svg>