<svg xmlns="http://www.w3.org/2000/svg" viewBox="0 0 310 310"><title>telIcon</title><circle cx="155" cy="155" r="150" fill="none" stroke="#fff" stroke-miterlimit="10" stroke-width="10"/><path d="M234.86,187.72a101.66,101.66,0,0,1-31.92-5.09c-5.08-1.73-10.86-.39-14.19,3l-20.12,15.2c-23.34-12.46-37.72-26.84-50-50l14.75-19.6a14.46,14.46,0,0,0,3.55-14.66,101.92,101.92,0,0,1-5.1-32,14.38,14.38,0,0,0-14.36-14.37H84.59A14.39,14.39,0,0,0,70.22,84.59c0,90.78,73.86,164.63,164.64,164.63a14.37,14.37,0,0,0,14.36-14.36V202.08A14.37,14.37,0,0,0,234.86,187.72Z" transform="translate(-5 -5)" fill="#fff"/></svg>